# This file uses centimeters as units for non-parametric coordinates.

g default
v 3.535533 -3.535533 0.000000
v 0.000000 -5.000000 0.000000
v -3.535533 -3.535533 0.000000
v -5.000000 -0.000000 0.000000
v -3.535533 3.535533 0.000000
v 0.000000 5.000000 0.000000
v 3.535534 3.535534 0.000000
v 5.000000 -0.000000 0.000000
v 0.000000 -0.000000 0.000000
vt 0.610485 0.733265
vt 0.500000 0.687500
vt 0.389515 0.733265
vt 0.343750 0.843750
vt 0.389515 0.954235
vt 0.500000 1.000000
vt 0.610485 0.954235
vt 0.656250 0.843750
vt 0.500000 0.837500
vn 0.000000 0.000000 -1.000000
vn 0.000000 0.000000 -1.000000
vn 0.000000 0.000000 -1.000000
vn 0.000000 0.000000 -1.000000
vn 0.000000 0.000000 -1.000000
vn 0.000000 0.000000 -1.000000
vn 0.000000 0.000000 -1.000000
vn 0.000000 0.000000 -1.000000
vn 0.000000 0.000000 -1.000000
s 1
g Octagon M_Shapes
f 1/7/1 2/6/2 9/9/3
f 2/6/2 3/5/4 9/9/3
f 3/5/4 4/4/5 9/9/3
f 4/4/5 5/3/6 9/9/3
f 5/3/6 6/2/7 9/9/3
f 6/2/7 7/1/8 9/9/3
f 7/1/8 8/8/9 9/9/3
f 8/8/9 1/7/1 9/9/3
