# This file uses centimeters as units for non-parametric coordinates.

g default
v 0.000001 4.776127 -0.000000
v -5.009203 1.136728 -0.000000
v -3.095858 -4.751944 -0.000000
v 3.095858 -4.751944 -0.000000
v 5.009203 1.136727 -0.000000
v 0.000000 -0.490861 -0.000000
vt 0.548284 0.007647
vt 0.373591 0.064409
vt 0.373591 0.248091
vt 0.548284 0.304853
vt 0.656250 0.156250
vt 0.500000 0.150000
vn 0.000000 0.000000 -1.000000
vn 0.000000 0.000000 -1.000000
vn 0.000000 -0.000000 -1.000000
vn 0.000000 -0.000000 -1.000000
vn 0.000000 -0.000000 -1.000000
vn 0.000000 0.000000 -1.000000
s 1
g M_Pentagon
f 2/2/1 1/1/2 6/6/3
f 3/3/4 2/2/1 6/6/3
f 4/4/5 3/3/4 6/6/3
f 5/5/6 4/4/5 6/6/3
f 1/1/2 5/5/6 6/6/3
