# This file uses centimeters as units for non-parametric coordinates.

g default
v -0.956613 5.845355 0.000000
v 0.000000 6.035638 0.000000
v 0.956613 5.845355 0.000000
v 1.767590 5.303478 0.000000
v -1.767590 5.303478 0.000000
v -5.845355 -0.956613 0.000000
v -6.035638 0.000000 0.000000
v -5.845355 0.956613 0.000000
v -5.303478 1.767590 0.000000
v -5.303478 -1.767590 0.000000
v 5.845355 0.956613 0.000000
v 6.035638 0.000000 0.000000
v 5.845355 -0.956613 0.000000
v 5.303478 -1.767590 0.000000
v 5.303478 1.767590 0.000000
v 0.956613 -5.845355 0.000000
v 0.000000 -6.035638 0.000000
v -0.956613 -5.845355 0.000000
v -1.767590 -5.303478 0.000000
v 1.767590 -5.303478 0.000000
vt 0.375000 0.187506
vt 0.562506 0.250000
vt 0.625000 0.062494
vt 0.625000 0.187506
vt 0.437494 0.250000
vt 0.375000 0.062494
vt 0.437494 0.000000
vt 0.562506 0.000000
vt 0.406247 0.250000
vt 0.375000 0.250000
vt 0.375000 0.218753
vt 0.625000 0.218753
vt 0.625000 0.250000
vt 0.593753 0.250000
vt 0.375000 0.031247
vt 0.375000 0.000000
vt -0.000000 -0.000000
vt -0.000000 -0.000000
vt 0.625000 0.000000
vt 0.625000 0.031247
vn 0.000000 0.000000 -1.000000
vn 0.000000 0.000000 -1.000000
vn 0.000000 0.000000 -1.000000
vn 0.000000 0.000000 -1.000000
vn 0.000000 0.000000 -1.000000
vn 0.000000 0.000000 -1.000000
vn 0.000000 0.000000 -1.000000
vn 0.000000 0.000000 -1.000000
vn 0.000000 0.000000 -1.000000
vn 0.000000 0.000000 -1.000000
vn 0.000000 0.000000 -1.000000
vn 0.000000 0.000000 -1.000000
vn 0.000000 0.000000 -1.000000
vn 0.000000 0.000000 -1.000000
vn 0.000000 0.000000 -1.000000
vn 0.000000 0.000000 -1.000000
vn 0.000000 0.000000 -1.000000
vn 0.000000 0.000000 -1.000000
vn 0.000000 0.000000 -1.000000
vn 0.000000 0.000000 -1.000000
s 1
g Plane_Rotated_Rounded M_Shapes
f 1/9/1 8/14/2 9/2/3 5/5/4
f 15/6/5 19/3/6 10/4/7 4/1/8
f 4/1/8 10/4/7 6/12/9 3/11/10
f 3/11/10 6/12/9 7/13/11 2/10/12
f 2/10/12 7/13/11 8/14/2 1/9/1
f 11/15/13 18/20/14 19/3/6 15/6/5
f 12/16/15 17/19/16 18/20/14 11/15/13
f 16/18/17 17/19/16 12/16/15 13/17/18
f 16/18/17 13/17/18 14/7/19 20/8/20
